<?xml version="1.0" encoding="UTF-8" standalone="no"?>
<svg
   width="24"
   height="24"
   viewBox="0 0 24 24"
   fill="none"
   stroke="currentColor"
   stroke-width="2"
   stroke-linecap="round"
   stroke-linejoin="round"
   class="icon icon-tabler icons-tabler-outline icon-tabler-pumpkin-scary"
   version="1.1"
   id="svg6"
   sodipodi:docname="pumpkin-scary.svg"
   inkscape:version="1.3.1 (9b9bdc1480, 2023-11-25, custom)"
   xmlns:inkscape="http://www.inkscape.org/namespaces/inkscape"
   xmlns:sodipodi="http://sodipodi.sourceforge.net/DTD/sodipodi-0.dtd"
   xmlns="http://www.w3.org/2000/svg"
   xmlns:svg="http://www.w3.org/2000/svg">
  <defs
     id="defs6" />
  <sodipodi:namedview
     id="namedview6"
     pagecolor="#ffffff"
     bordercolor="#000000"
     borderopacity="0.25"
     inkscape:showpageshadow="2"
     inkscape:pageopacity="0.0"
     inkscape:pagecheckerboard="0"
     inkscape:deskcolor="#d1d1d1"
     inkscape:zoom="33.666667"
     inkscape:cx="12"
     inkscape:cy="12"
     inkscape:window-width="1920"
     inkscape:window-height="1011"
     inkscape:window-x="0"
     inkscape:window-y="0"
     inkscape:window-maximized="1"
     inkscape:current-layer="svg6" />
  <path
     stroke="none"
     d="M0 0h24v24H0z"
     fill="none"
     id="path1" />
  <path
     d="M9 15l1.5 1l1.5 -1l1.5 1l1.5 -1"
     id="path2"
     style="fill:#00ff00" />
  <path
     d="M10 11h.01"
     id="path3" />
  <path
     d="M14 11h.01"
     id="path4"
     style="fill:#ff6600" />
  <path
     d="M17 6.082c2.609 .588 3.627 4.162 2.723 7.983c-.903 3.82 -2.75 6.44 -5.359 5.853a3.355 3.355 0 0 1 -.774 -.279a3.728 3.728 0 0 1 -1.59 .361c-.556 0 -1.09 -.127 -1.59 -.362a3.296 3.296 0 0 1 -.774 .28c-2.609 .588 -4.456 -2.033 -5.36 -5.853c-.903 -3.82 .115 -7.395 2.724 -7.983c1.085 -.244 1.575 .066 2.585 .787c.716 -.554 1.54 -.869 2.415 -.869c.876 0 1.699 .315 2.415 .87c1.01 -.722 1.5 -1.032 2.585 -.788z"
     id="path5"
     style="fill:none" />
  <path
     d="M12 6c0 -1.226 .693 -2.346 1.789 -2.894l.211 -.106"
     id="path6" />
  <path
     style="fill:#ff6600;stroke-width:0.0594059"
     d="m 13.701975,11.931655 c -0.428825,-0.153216 -0.672307,-0.487407 -0.675567,-0.927251 -0.0014,-0.194314 0.01102,-0.249085 0.09597,-0.421704 0.175735,-0.357109 0.493425,-0.557948 0.882571,-0.557948 0.389147,0 0.706837,0.200839 0.882572,0.557948 0.08474,0.172202 0.09746,0.227858 0.09638,0.421704 -0.0015,0.273007 -0.09309,0.495868 -0.280937,0.683715 -0.257212,0.257213 -0.676921,0.359325 -1.000995,0.243536 z"
     id="path7" />
  <path
     style="fill:#ff6600;stroke-width:0.0594059"
     d="m 9.7225002,11.944321 c -0.2736817,-0.08983 -0.4964526,-0.29192 -0.6199638,-0.562403 -0.069124,-0.151378 -0.077473,-0.202374 -0.068081,-0.415841 0.012677,-0.288132 0.090506,-0.473789 0.2766443,-0.659928 0.2036158,-0.203616 0.3687495,-0.266569 0.6988013,-0.266402 0.248742,1.26e-4 0.300155,0.0096 0.433889,0.08004 0.08344,0.04394 0.213044,0.148115 0.288007,0.231492 0.448957,0.499348 0.28882,1.255037 -0.327327,1.54466 -0.17403,0.0818 -0.5079699,0.105495 -0.6819696,0.04838 z"
     id="path8" />
  <path
     style="fill:#ff6600;stroke-width:0.0594059"
     d="M 10.188119,16.93622 C 10.029548,16.88594 8.3337042,15.746141 8.2485752,15.632626 8.0747268,15.400808 8.0350923,15.283481 8.0348665,15 c -1.98e-4,-0.248412 0.007,-0.280638 0.1017871,-0.45546 C 8.320278,14.205855 8.6214243,14.024436 9,14.024436 c 0.2877572,0 0.368147,0.03672 0.9889328,0.451673 0.2722042,0.181952 0.5021842,0.330822 0.5110672,0.330822 0.0089,0 0.238863,-0.14887 0.511067,-0.330822 0.620786,-0.414957 0.701176,-0.451673 0.988933,-0.451673 0.287757,0 0.368147,0.03672 0.988933,0.451673 0.272204,0.181952 0.502184,0.330822 0.511067,0.330822 0.0089,0 0.238863,-0.14887 0.511067,-0.330822 0.620786,-0.414957 0.701176,-0.451673 0.988933,-0.451673 0.378576,0 0.679722,0.181419 0.863346,0.520104 0.09478,0.174822 0.101985,0.207048 0.101788,0.45546 -2.26e-4,0.283481 -0.03986,0.400808 -0.213709,0.632626 -0.09299,0.123997 -1.790626,1.25672 -1.957841,1.306342 -0.167811,0.0498 -0.453018,0.04551 -0.607903,-0.0091 -0.0708,-0.02498 -0.360217,-0.19874 -0.64316,-0.386139 C 12.259577,16.356296 12.015443,16.20297 12,16.20297 c -0.01544,0 -0.259577,0.153326 -0.542521,0.340724 -0.282943,0.187399 -0.572365,0.361161 -0.64316,0.386139 -0.147004,0.05187 -0.472303,0.05518 -0.6262,0.0064 z"
     id="path9" />
  <path
     style="fill:#ff6600;stroke-width:0.0594059"
     d="M 8.509901,20.967698 C 7.6654206,20.848179 6.9193004,20.518141 6.2771549,19.98007 6.0507463,19.790356 5.628739,19.3572 5.4332415,19.113861 4.826429,18.358554 4.2063356,17.157583 3.7892867,15.929918 2.9841037,13.559706 2.7710014,11.332495 3.1654525,9.4099951 3.5511297,7.5302578 4.5250141,6.1032413 5.8692362,5.4481859 6.5186317,5.1317281 7.3536808,4.9646421 7.9455446,5.0327347 8.4382735,5.0894222 8.8458558,5.2313314 9.312025,5.5085064 L 9.5971818,5.6780549 9.8460175,5.5488746 c 0.3139265,-0.162971 0.5745775,-0.2631799 0.9494565,-0.3650237 0.162511,-0.04415 0.305119,-0.099122 0.316907,-0.1221603 0.01179,-0.023039 0.06361,-0.1805199 0.115164,-0.3499581 0.313835,-1.0314884 1.063275,-1.9118686 2.10939,-2.4779358 0.446348,-0.2415255 0.725512,-0.2746937 1.057719,-0.1256707 0.199813,0.089633 0.365873,0.2429948 0.473522,0.437313 0.08024,0.1448374 0.08727,0.1814659 0.08727,0.454561 0,0.2730951 -0.007,0.3097236 -0.08727,0.454561 -0.109473,0.1976118 -0.259503,0.3342456 -0.498486,0.4539771 -0.502485,0.251748 -0.906583,0.6227197 -1.111107,1.0200236 -0.06261,0.1216246 -0.107419,0.2257353 -0.09958,0.2313572 0.0078,0.00562 0.153357,0.054808 0.323364,0.1093019 0.170006,0.054494 0.448218,0.1688349 0.618247,0.2540902 l 0.309143,0.1550091 0.139179,-0.08847 c 0.392875,-0.249734 0.861359,-0.4450622 1.267892,-0.5286312 0.285386,-0.058665 0.842421,-0.046126 1.218523,0.02743 1.197916,0.2342816 2.128392,0.8672653 2.840662,1.9324438 0.565213,0.8452577 0.915644,1.8597285 1.083735,3.1373233 0.06403,0.486697 0.07375,1.883724 0.01663,2.391089 -0.151026,1.341496 -0.511257,2.77963 -1.020421,4.073787 -0.337687,0.858308 -0.927096,1.915091 -1.389089,2.490569 -0.194369,0.242116 -0.616409,0.675182 -0.844029,0.86608 -1.122291,0.941234 -2.507139,1.229694 -3.884555,0.809143 l -0.25577,-0.07809 -0.264032,0.07648 C 12.824774,20.93047 12.556668,20.967155 12,20.967875 c -0.561354,7.27e-4 -0.833712,-0.03684 -1.314356,-0.181302 l -0.259901,-0.07812 -0.259901,0.07936 c -0.142946,0.04365 -0.3601489,0.0996 -0.4826737,0.124343 -0.2173081,0.04388 -0.9953917,0.08071 -1.1732673,0.05554 z m 0.9352417,-2.02058 c 0.1059671,-0.02397 0.2998434,-0.08961 0.4308362,-0.145876 0.4414301,-0.189598 0.6095881,-0.189238 1.0884041,0.0023 0.373307,0.149358 0.635314,0.199702 1.035617,0.198993 0.408481,-7.23e-4 0.673062,-0.05288 1.046505,-0.206306 0.248813,-0.102221 0.300977,-0.113094 0.542604,-0.113094 0.243145,0 0.290202,0.01 0.520204,0.110185 0.922903,0.402131 1.751411,0.250457 2.512027,-0.459874 0.6916,-0.645878 1.308977,-1.76029 1.789132,-3.229519 0.291115,-0.890786 0.485436,-1.755224 0.58758,-2.613861 0.06153,-0.517266 0.06961,-1.595432 0.01525,-2.034653 C 18.854704,9.1741643 18.444997,8.193652 17.826372,7.6148923 17.401983,7.2178506 16.974915,7.0291455 16.442075,7.003225 16.045791,6.9839471 15.938365,7.0263541 15.294676,7.4561632 14.888577,7.7273266 14.756821,7.8001375 14.621333,7.8282648 14.310002,7.8928969 14.054613,7.823283 13.733921,7.5863733 13.476201,7.3959844 13.057917,7.1867504 12.757426,7.0979106 12.429266,7.0008906 11.908147,6.9681754 11.56714,7.0231856 11.141694,7.0918173 10.642986,7.3079361 10.263997,7.5879113 9.9966324,7.7854253 9.8514659,7.8402597 9.5940594,7.8409696 9.303859,7.8417701 9.2319555,7.8100043 8.6686452,7.4321364 8.067011,7.0285604 7.9511453,6.9838363 7.5594059,7.0039684 6.2236764,7.0726132 5.267098,8.3166101 5.0081548,10.321782 c -0.160117,1.239893 -0.040001,2.568769 0.3679493,4.07073 0.4790997,1.763912 1.1860822,3.165843 1.9738219,3.914048 0.6508509,0.618186 1.3071199,0.818823 2.0952167,0.640558 z"
     id="path10" />
  <path
     style="fill:#00ff00;stroke-width:0.0594059"
     d="M 9.6337342,11.855568 C 9.4405751,11.763332 9.2624155,11.586553 9.1610795,11.386576 9.0893378,11.245001 9.0835984,11.208113 9.0950651,10.962295 9.1094031,10.654924 9.1506358,10.551837 9.3373883,10.35646 9.5272615,10.157817 9.6529342,10.104982 9.97108,10.090043 c 0.237361,-0.01115 0.290834,-0.0042 0.409006,0.05299 0.175054,0.08474 0.377396,0.287855 0.465988,0.467764 0.05664,0.115016 0.06977,0.189196 0.06977,0.394155 0,0.298465 -0.06245,0.45489 -0.259495,0.649984 -0.184089,0.182267 -0.347352,0.25042 -0.630367,0.263143 -0.2061067,0.0093 -0.2598804,6.96e-4 -0.3922458,-0.06251 z"
     id="path11" />
  <path
     style="fill:#00ff00;stroke-width:0.0594059"
     d="m 13.633663,11.849447 c -0.335168,-0.155339 -0.528326,-0.432941 -0.556018,-0.799095 -0.01426,-0.188481 -0.0067,-0.234695 0.06421,-0.392691 0.09637,-0.214732 0.303409,-0.427797 0.499826,-0.514362 0.19566,-0.08623 0.530887,-0.08623 0.726547,0 0.196417,0.08656 0.40346,0.29963 0.499826,0.514362 0.0709,0.157996 0.07846,0.20421 0.06421,0.392691 -0.02021,0.267239 -0.11647,0.466893 -0.305194,0.633014 -0.278912,0.245508 -0.678045,0.312237 -0.993399,0.166081 z"
     id="path12" />
  <path
     style="fill:#00ff00;stroke-width:0.0594059"
     d="M 10.11086,16.839383 C 9.9209848,16.739614 8.6481191,15.888354 8.430065,15.715311 8.178859,15.515958 8.0998826,15.361642 8.0845101,15.040113 c -0.011429,-0.23905 -0.00567,-0.274287 0.068328,-0.417914 0.1683596,-0.326787 0.4438718,-0.518751 0.7895088,-0.550092 0.2491771,-0.0226 0.3994203,0.04116 0.9659376,0.409886 0.2764335,0.179921 0.5315305,0.33448 0.5668825,0.343463 0.04756,0.01209 0.197305,-0.07045 0.575753,-0.317339 0.561477,-0.366292 0.72716,-0.443761 0.94908,-0.443761 0.21914,0 0.389196,0.07802 0.904921,0.415176 0.256181,0.167478 0.502453,0.318346 0.54727,0.335262 0.07498,0.0283 0.122559,0.004 0.595846,-0.304796 0.608601,-0.397035 0.746205,-0.457503 0.996528,-0.437916 0.34797,0.02723 0.630694,0.217718 0.799651,0.538778 0.06336,0.120399 0.07635,0.184478 0.07527,0.371287 -0.0021,0.366767 -0.09983,0.553674 -0.408937,0.78222 -0.261385,0.193262 -1.024185,0.705811 -1.386789,0.931828 l -0.326732,0.203658 -0.267327,0.01016 c -0.315389,0.01199 -0.298877,0.01913 -1.01341,-0.438216 C 12.259768,16.307606 12.027436,16.173267 12,16.173267 c -0.02744,0 -0.259768,0.134339 -0.516293,0.298532 -0.688236,0.440513 -0.696054,0.444043 -0.983707,0.444043 -0.204252,0 -0.267146,-0.01236 -0.38914,-0.07646 z"
     id="path13" />
</svg>
